<svg width="50" height="50" viewBox="0 0 50 50" fill="none" xmlns="http://www.w3.org/2000/svg">
<circle cx="25" cy="25" r="25" fill="#F2F2F2"/>
<path d="M34.5087 20.8418L28.7958 18C28.2099 18.8203 26.8915 19.4062 25.3974 19.4062C23.8739 19.4062 22.5556 18.8203 21.9696 18L16.2568 20.8418C16.0224 20.959 15.9345 21.252 16.0517 21.457L17.7216 24.8262C17.8388 25.0605 18.1318 25.1484 18.3661 25.0312L20.0068 24.2109C20.329 24.0645 20.6806 24.2988 20.6806 24.6504V32.0625C20.6806 32.5898 21.12 33 21.6181 33H29.1181C29.6454 33 30.0556 32.5898 30.0556 32.0625V24.6504C30.0556 24.2988 30.4364 24.0645 30.7294 24.2109L32.3993 25.0312C32.6337 25.1484 32.9267 25.0605 33.0439 24.8262L34.7138 21.457C34.831 21.252 34.7431 20.959 34.5087 20.8418Z" fill="#C4C4C4"/>
</svg>
