<svg width="15" height="15" viewBox="0 0 15 15" fill="none" xmlns="http://www.w3.org/2000/svg">
<circle cx="7.5" cy="7.5" r="7.5" fill="white"/>
<path d="M7.5 0C3.35685 0 0 3.35685 0 7.5C0 11.6431 3.35685 15 7.5 15C11.6431 15 15 11.6431 15 7.5C15 3.35685 11.6431 0 7.5 0ZM11.1593 9.49597C11.3105 9.61693 11.3105 9.85887 11.1593 10.0101L9.97984 11.1895C9.82863 11.3407 9.58669 11.3407 9.46573 11.1895L7.5 9.19355L5.50403 11.1895C5.38306 11.3407 5.14113 11.3407 4.98992 11.1895L3.81048 9.97984C3.65927 9.85887 3.65927 9.61693 3.81048 9.46573L5.80645 7.5L3.81048 5.53427C3.65927 5.41331 3.65927 5.17137 3.81048 5.02016L5.02016 3.84073C5.14113 3.68952 5.38306 3.68952 5.53427 3.84073L7.5 5.80645L9.46573 3.84073C9.58669 3.68952 9.82863 3.68952 9.97984 3.84073L11.1593 5.02016C11.3105 5.17137 11.3105 5.41331 11.1593 5.53427L9.19355 7.5L11.1593 9.49597Z" fill="#FF4D42"/>
</svg>
