<svg width="56" height="45" viewBox="0 0 56 45" fill="none" xmlns="http://www.w3.org/2000/svg">
<path d="M55.2338 8.52539L38.1853 0C36.4368 2.46094 32.5025 4.21875 28.0437 4.21875C23.4975 4.21875 19.5632 2.46094 17.8147 0L0.766222 8.52539C0.066799 8.87695 -0.195485 9.75586 0.154227 10.3711L5.13761 20.4785C5.48733 21.1816 6.3616 21.4453 7.06103 21.0938L11.957 18.6328C12.9187 18.1934 13.9678 18.8965 13.9678 19.9512V42.1875C13.9678 43.7695 15.2792 45 16.7655 45H39.147C40.7208 45 41.9447 43.7695 41.9447 42.1875V19.9512C41.9447 18.8965 43.0813 18.1934 43.9556 18.6328L48.939 21.0938C49.6384 21.4453 50.5127 21.1816 50.8624 20.4785L55.8458 10.3711C56.1955 9.75586 55.9332 8.87695 55.2338 8.52539Z" fill="#C4C4C4"/>
</svg>
