<svg width="20" height="18" viewBox="0 0 20 18" fill="none" xmlns="http://www.w3.org/2000/svg">
<path d="M17.9668 7.5625C17.7012 3.57812 14.5469 0.423828 10.5625 0.158203C10.5625 0.158203 10.5625 0.125 10.5293 0.125C10.2637 0.125 10.0312 0.390625 10.0312 0.689453V8.09375H17.4355C17.7344 8.09375 18 7.86133 17.9668 7.5625ZM11.625 6.5V1.91797C13.8496 2.48242 15.6426 4.27539 16.207 6.5H11.625ZM8.4375 9.6875V1.81836C8.4375 1.51953 8.17188 1.28711 7.90625 1.28711C7.87305 1.28711 7.83984 1.28711 7.83984 1.28711C3.85547 1.85156 0.833984 5.30469 1 9.45508C1.13281 13.6719 4.75195 17.125 8.96875 17.125C9.00195 17.125 9.03516 17.125 9.06836 17.125C10.7285 17.125 12.2891 16.5938 13.5508 15.6641C13.8164 15.498 13.8164 15.0996 13.584 14.8672L8.4375 9.6875ZM9.03516 15.5312H8.96875C5.61523 15.5312 2.69336 12.7422 2.59375 9.38867C2.49414 6.56641 4.25391 4.07617 6.84375 3.17969V10.3516L7.30859 10.8164L11.4922 15.0332C10.7285 15.3652 9.89844 15.5312 9.03516 15.5312ZM18.498 9.6875H10.6289L15.875 14.9668C15.9746 15.0664 16.1074 15.0996 16.2734 15.0996C16.373 15.0996 16.5059 15.0664 16.6055 14.9668C17.9004 13.7715 18.7969 12.1445 19.0293 10.2852C19.0957 9.98633 18.8301 9.6875 18.498 9.6875Z" fill="#1D1D1D"/>
</svg>
