<svg width="17" height="16" viewBox="0 0 17 16" fill="none" xmlns="http://www.w3.org/2000/svg">
<path d="M16.1426 2.75H4.21875L3.95508 1.46094C3.89648 1.13867 3.60352 0.875 3.28125 0.875H0.351562C0.146484 0.875 0 1.05078 0 1.22656V1.92969C0 2.13477 0.146484 2.28125 0.351562 2.28125H2.69531L4.7168 12.7109C4.39453 13.0625 4.21875 13.502 4.21875 14C4.21875 15.0547 5.03906 15.875 6.09375 15.875C7.11914 15.875 7.96875 15.0547 7.96875 14C7.96875 13.7363 7.85156 13.3262 7.70508 13.0625H11.9531C11.8066 13.3262 11.7188 13.7363 11.7188 14C11.7188 15.0547 12.5391 15.875 13.5938 15.875C14.6191 15.875 15.4688 15.0547 15.4688 14C15.4688 13.4727 15.2344 13.0039 14.8828 12.6523L14.9121 12.5352C15 12.0957 14.6777 11.6562 14.209 11.6562H5.94727L5.68359 10.25H14.8242C15.1758 10.25 15.4395 10.0449 15.5273 9.72266L16.8457 3.62891C16.9336 3.18945 16.6113 2.75 16.1426 2.75ZM6.09375 14.7031C5.68359 14.7031 5.39062 14.4102 5.39062 14C5.39062 13.6191 5.68359 13.2969 6.09375 13.2969C6.47461 13.2969 6.79688 13.6191 6.79688 14C6.79688 14.4102 6.47461 14.7031 6.09375 14.7031ZM13.5938 14.7031C13.1836 14.7031 12.8906 14.4102 12.8906 14C12.8906 13.6191 13.1836 13.2969 13.5938 13.2969C13.9746 13.2969 14.2969 13.6191 14.2969 14C14.2969 14.4102 13.9746 14.7031 13.5938 14.7031ZM14.2676 8.84375H5.39062L4.48242 4.15625H15.293L14.2676 8.84375Z" fill="#1D1D1D"/>
</svg>
