<svg width="19" height="14" viewBox="0 0 19 14" fill="none" xmlns="http://www.w3.org/2000/svg">
<path d="M9.375 4.5918C8.05664 4.5918 7.03125 5.85156 7.03125 7.4043C7.03125 8.98633 8.05664 10.2461 9.375 10.2461C10.6641 10.2461 11.7188 8.98633 11.7188 7.4043C11.7188 5.85156 10.6641 4.5918 9.375 4.5918ZM18.1934 1.48633C17.0508 1.01758 15.9082 0.8125 14.7656 0.8125C11.1621 0.8125 7.55859 2.6582 3.95508 2.6582C3.04688 2.6582 2.13867 2.54102 1.23047 2.24805C1.14258 2.21875 1.02539 2.18945 0.9375 2.18945C0.439453 2.18945 0 2.59961 0 3.12695V12.4434C0 12.7949 0.205078 13.1465 0.527344 13.293C1.66992 13.7617 2.8125 13.9375 3.95508 13.9375C7.55859 13.9375 11.1621 12.1211 14.7656 12.1211C15.6738 12.1211 16.582 12.2383 17.4902 12.5312C17.5781 12.5605 17.6953 12.5605 17.7832 12.5605C18.2812 12.5605 18.75 12.1797 18.75 11.6523V2.33594C18.75 1.98438 18.5156 1.63281 18.1934 1.48633ZM17.3438 9.33789C16.5527 9.42578 15.9082 10.0117 15.7324 10.7734C15.4102 10.7441 15.1172 10.7148 14.7656 10.7148C12.8027 10.7148 10.8691 11.2129 9.02344 11.6816C7.23633 12.1211 5.56641 12.5312 3.95508 12.5312C3.7207 12.5312 3.48633 12.5312 3.25195 12.5312C3.22266 11.5059 2.40234 10.7148 1.40625 10.7148V5.5293C2.31445 5.5293 3.04688 4.88477 3.22266 4.00586C3.45703 4.03516 3.69141 4.06445 3.95508 4.06445C5.91797 4.06445 7.85156 3.56641 9.69727 3.09766C11.4844 2.6582 13.1543 2.21875 14.7656 2.21875C15.0879 2.21875 15.3809 2.24805 15.7031 2.27734C15.7324 3.21484 16.4355 3.97656 17.3438 4.09375V9.33789Z" fill="#1D1D1D"/>
</svg>
