<svg width="13" height="18" viewBox="0 0 13 18" fill="none" xmlns="http://www.w3.org/2000/svg">
<path d="M9.5625 8.35938C9.5625 8.16016 9.36328 7.96094 9.16406 7.96094H3.58594C3.35352 7.96094 3.1875 8.16016 3.1875 8.35938V9.28906C3.1875 9.52148 3.35352 9.6875 3.58594 9.6875H9.16406C9.36328 9.6875 9.5625 9.52148 9.5625 9.28906V8.35938ZM9.16406 10.75H3.58594C3.35352 10.75 3.1875 10.9492 3.1875 11.1484V12.0781C3.1875 12.3105 3.35352 12.4766 3.58594 12.4766H9.16406C9.36328 12.4766 9.5625 12.3105 9.5625 12.0781V11.1484C9.5625 10.9492 9.36328 10.75 9.16406 10.75ZM12.75 4.50781C12.75 4.10938 12.5508 3.67773 12.252 3.37891L9.49609 0.623047C9.19727 0.324219 8.76562 0.125 8.36719 0.125H1.59375C0.697266 0.125 0 0.855469 0 1.71875V15.5312C0 16.4277 0.697266 17.125 1.59375 17.125H11.1562C12.0195 17.125 12.75 16.4277 12.75 15.5312V4.50781ZM8.5 1.85156L11.0234 4.375H8.5V1.85156ZM11.1562 15.5312H1.59375V1.71875H6.90625V5.17188C6.90625 5.63672 7.23828 5.96875 7.70312 5.96875H11.1562V15.5312Z" fill="#1D1D1D"/>
</svg>
