<svg width="20" height="16" viewBox="0 0 20 16" fill="none" xmlns="http://www.w3.org/2000/svg">
<path d="M19.6914 4.41992C19.5742 4.15625 19.3691 3.92188 19.1055 3.77539L13.3047 0.875C13.0117 1.28516 12.4551 2.36914 10.375 2.36914C8.23633 2.36914 7.67969 1.25586 7.41602 0.875L1.61523 3.77539C1.35156 3.92188 1.14648 4.15625 1.05859 4.41992C0.941406 4.71289 0.970703 5.03516 1.11719 5.29883L2.66992 8.4043C2.93359 8.99023 3.63672 9.19531 4.16406 8.93164L4.86719 8.60938C5.04297 8.52148 5.21875 8.63867 5.21875 8.81445V14.2344C5.21875 15.1426 5.95117 15.875 6.85938 15.875H13.8906C14.7988 15.875 15.5312 15.1426 15.5312 14.2344V8.81445C15.5312 8.63867 15.707 8.52148 15.8535 8.60938L16.5566 8.93164C17.1133 9.22461 17.7871 8.99023 18.0801 8.43359L19.6328 5.29883C19.75 5.03516 19.7793 4.71289 19.6914 4.41992ZM16.9375 7.55469L14.7695 6.5293C14.4766 6.38281 14.125 6.61719 14.125 6.96875V14.2344C14.125 14.3809 14.0078 14.4688 13.8906 14.4688H6.85938C6.71289 14.4688 6.625 14.3809 6.625 14.2344V6.96875C6.625 6.61719 6.24414 6.38281 5.95117 6.5293L3.8125 7.55469L2.49414 4.91797L7.03516 2.66211C7.82617 3.36523 9.02734 3.77539 10.375 3.77539C11.6934 3.77539 12.8945 3.36523 13.6855 2.66211L18.2266 4.91797L16.9375 7.55469Z" fill="#1D1D1D"/>
</svg>
