<svg width="19" height="14" viewBox="0 0 19 14" fill="none" xmlns="http://www.w3.org/2000/svg">
<path d="M14.0625 7.375C15.6152 7.375 16.875 6.11523 16.875 4.5625C16.875 3.00977 15.6152 1.75 14.0625 1.75C12.5098 1.75 11.25 3.00977 11.25 4.5625C11.25 6.11523 12.5098 7.375 14.0625 7.375ZM14.0625 3.15625C14.8242 3.15625 15.4688 3.80078 15.4688 4.5625C15.4688 5.35352 14.8242 5.96875 14.0625 5.96875C13.2715 5.96875 12.6562 5.35352 12.6562 4.5625C12.6562 3.80078 13.2715 3.15625 14.0625 3.15625ZM7.96875 7.96094C7.61719 7.96094 7.26562 8.01953 6.91406 8.13672C6.50391 8.25391 6.06445 8.3125 5.5957 8.3125C5.15625 8.3125 4.7168 8.25391 4.30664 8.13672C3.95508 8.01953 3.60352 7.96094 3.25195 7.96094C2.19727 7.96094 1.17188 8.45898 0.556641 9.33789C0.205078 9.89453 0 10.5391 0 11.2422V12.5312C0 13.3223 0.615234 13.9375 1.40625 13.9375H9.84375C10.6055 13.9375 11.25 13.3223 11.25 12.5312V11.2422C11.25 10.5391 11.0156 9.89453 10.6641 9.33789C10.0488 8.45898 9.02344 7.96094 7.96875 7.96094ZM9.84375 12.5312H1.40625V11.2422C1.40625 10.3926 1.93359 9.66016 2.69531 9.39648C2.98828 9.2793 3.31055 9.2793 3.63281 9.39648C4.27734 9.60156 4.95117 9.71875 5.625 9.71875C6.29883 9.71875 6.94336 9.60156 7.61719 9.39648C7.91016 9.2793 8.23242 9.2793 8.55469 9.39648C9.28711 9.66016 9.84375 10.3926 9.84375 11.2422V12.5312ZM5.625 7.375C7.41211 7.375 8.90625 5.91016 8.90625 4.09375C8.90625 2.30664 7.41211 0.8125 5.625 0.8125C3.80859 0.8125 2.34375 2.30664 2.34375 4.09375C2.34375 5.91016 3.80859 7.375 5.625 7.375ZM5.625 2.21875C6.65039 2.21875 7.5 3.06836 7.5 4.09375C7.5 5.14844 6.65039 5.96875 5.625 5.96875C4.57031 5.96875 3.75 5.14844 3.75 4.09375C3.75 3.06836 4.57031 2.21875 5.625 2.21875ZM18.252 9.19141C17.7539 8.42969 16.9043 8.01953 15.9961 8.01953C15.2051 8.01953 15 8.3125 14.0625 8.3125C13.125 8.3125 12.9199 8.01953 12.0996 8.01953C11.6895 8.01953 11.3379 8.10742 10.9863 8.2832C11.1328 8.42969 11.3086 8.63477 11.4551 8.81055C11.5723 9.01562 11.6895 9.25 11.8066 9.45508C11.8945 9.45508 11.9824 9.42578 12.0996 9.42578C12.5977 9.42578 12.9492 9.71875 14.0625 9.71875C15.1465 9.71875 15.498 9.42578 15.9961 9.42578C16.4648 9.42578 16.875 9.63086 17.0801 9.95312C17.2559 10.1875 17.3438 10.4512 17.3438 10.7441V11.5938H12.1875V12.5312C12.1875 12.707 12.1582 12.8535 12.1289 13H17.5781C18.2227 13 18.75 12.502 18.75 11.8281V10.7441C18.75 10.1582 18.5742 9.63086 18.252 9.19141Z" fill="#1D1D1D"/>
</svg>
