<svg width="35" height="35" viewBox="0 0 35 35" fill="none" xmlns="http://www.w3.org/2000/svg">
<circle cx="17.5" cy="17.5" r="17.5" fill="#EBEBEB"/>
<path d="M17.5 17.5C19.0527 17.5 20.3125 16.2695 20.3125 14.6875V14.2188H14.6875V14.6875C14.6875 16.2695 15.918 17.5 17.5 17.5ZM19.7266 18.4375H19.4922C18.877 18.7305 18.2031 18.9062 17.5 18.9062C16.7676 18.9062 16.0938 18.7305 15.4785 18.4375H15.2441C13.3691 18.4375 11.875 19.9609 11.875 21.8359V22.6562C11.875 23.4473 12.4902 24.0625 13.2812 24.0625H21.7188C22.4805 24.0625 23.125 23.4473 23.125 22.6562V21.8359C23.125 19.9609 21.6016 18.4375 19.7266 18.4375ZM20.3125 10.9375L18.9062 11.6406L17.5 10.9375L16.0938 11.6406L14.6875 10.9375V13.2812H20.3125V10.9375Z" fill="#91C1F8"/>
</svg>
